<svg width="190" height="46" viewBox="0 0 190 46" fill="none" xmlns="http://www.w3.org/2000/svg">
<path d="M31.269 26.0572C31.269 24.9863 31.4535 23.7918 31.8225 22.4738C32.1914 21.1557 32.6219 20.0231 33.1138 19.0757C33.5238 18.2931 34.0772 17.4694 34.7742 16.6044C35.5121 15.7394 36.4345 14.9363 37.5413 14.1949C38.6892 13.4535 40.0626 12.8357 41.6614 12.3414C43.2602 11.8471 45.146 11.6 47.3188 11.6C47.5647 11.6 47.9747 11.6206 48.5486 11.6618C49.1636 11.6618 49.84 11.7442 50.5779 11.9089C51.3568 12.0325 52.1972 12.259 53.0991 12.5885C54.001 12.8768 54.9029 13.2887 55.8048 13.8242C56.4198 14.1949 56.9117 14.5244 57.2807 14.8127C57.6496 15.101 57.9571 15.4099 58.2031 15.7394C58.449 16.069 58.695 16.4602 58.941 16.9133C59.2279 17.3252 59.5969 17.8813 60.0479 18.5815C60.3348 19.0757 60.5603 19.467 60.7243 19.7553C60.9293 20.0436 61.0932 20.2908 61.2162 20.4967C61.3392 20.7027 61.4212 20.888 61.4622 21.0528C61.5442 21.2175 61.6262 21.4235 61.7082 21.6706C62.0361 22.6179 62.2821 23.5241 62.4461 24.389C62.6101 25.2128 62.6921 26.1807 62.6921 27.2928C62.6921 29.3111 62.4256 30.9792 61.8927 32.2972C61.4007 33.6153 60.7243 34.8097 59.8634 35.8806C59.3714 36.4573 59.064 36.8485 58.941 37.0545C58.818 37.2192 58.7155 37.3428 58.6335 37.4252C58.5925 37.5076 58.531 37.6105 58.449 37.7341C58.367 37.8165 58.1211 38.0842 57.7111 38.5373C57.5061 38.7432 57.2192 38.9698 56.8502 39.2169C56.5222 39.464 56.1328 39.7112 55.6818 39.9583C55.2719 40.2054 54.8619 40.4319 54.452 40.6379C54.042 40.8026 53.6936 40.9468 53.4066 41.0704C52.5047 41.3999 51.3568 41.6264 49.963 41.75C48.5691 41.9147 47.3188 41.9971 46.2119 41.9971C45.8839 41.9971 45.2075 41.9353 44.1826 41.8118C43.1987 41.7294 42.1533 41.4617 41.0465 41.0086C39.8986 40.5555 39.0172 40.1024 38.4023 39.6494C37.8283 39.1551 37.3364 38.7226 36.9264 38.3519C36.0245 37.5282 35.3481 36.9103 34.8971 36.4984C34.4462 36.0454 34.0362 35.5511 33.6673 35.0157C32.9704 34.0271 32.4989 33.1416 32.2529 32.359C32.007 31.5764 31.843 30.8556 31.761 30.1966C31.556 29.0845 31.4125 28.2196 31.3305 27.6017C31.2895 26.9839 31.269 26.4691 31.269 26.0572ZM53.3451 26.675C53.3451 25.81 53.2016 25.0275 52.9146 24.3272C52.6277 23.627 52.2587 22.9886 51.8078 22.412C50.9879 21.3411 50.0655 20.6409 49.0406 20.3114C48.0567 19.9407 47.2573 19.7553 46.6423 19.7553C45.7814 19.7553 44.818 20.0231 43.7522 20.5585C42.7273 21.0528 41.9279 21.7118 41.3539 22.5355C40.78 23.3181 40.4315 24.0389 40.3085 24.6979C40.2266 25.3158 40.1856 25.81 40.1856 26.1807C40.1856 27.3752 40.3905 28.4049 40.8005 29.2699C41.2104 30.0936 41.8254 30.8556 42.6453 31.5558C43.4242 32.1737 44.1826 32.6061 44.9205 32.8533C45.6584 33.0592 46.3964 33.1622 47.1343 33.1622C47.7902 33.1622 48.4461 33.0592 49.1021 32.8533C49.799 32.6473 50.5164 32.1943 51.2543 31.494C52.0742 30.7115 52.6277 29.8877 52.9146 29.0227C53.2016 28.1578 53.3451 27.3752 53.3451 26.675Z" fill="#D75A47"/>
<path d="M142.182 36.1424C142.182 36.266 142.182 36.4513 142.182 36.6984C142.182 36.9456 142.162 37.2133 142.121 37.5016C142.121 37.7899 142.1 38.0782 142.059 38.3666C142.018 38.6137 141.977 38.799 141.936 38.9226C141.731 39.4581 141.301 39.8905 140.645 40.22C140.03 40.5084 139.456 40.7555 138.923 40.9614C137.611 41.4145 136.34 41.7028 135.11 41.8264C133.881 41.95 132.897 42.0117 132.159 42.0117C131.626 42.0117 131.011 41.9912 130.314 41.95C129.658 41.95 128.982 41.9088 128.285 41.8264C127.588 41.7852 126.891 41.7028 126.194 41.5793C125.538 41.4557 124.964 41.3115 124.472 41.1468C123.57 40.8173 122.545 40.2818 121.397 39.5404C120.291 38.799 119.184 37.687 118.077 36.2042C117.872 35.957 117.605 35.5863 117.277 35.0921C116.99 34.5978 116.683 33.98 116.355 33.2386C116.068 32.4972 115.822 31.6528 115.617 30.7055C115.412 29.717 115.31 28.6255 115.31 27.431C115.31 25.907 115.433 24.4037 115.679 22.9209C115.965 21.3969 116.56 19.8729 117.462 18.349C118.2 17.0721 119.02 16.0218 119.922 15.198C120.823 14.3331 121.766 13.6535 122.75 13.1592C123.775 12.6649 124.821 12.3148 125.886 12.1089C126.952 11.903 127.998 11.8 129.023 11.8C130.99 11.8 132.528 12.0059 133.635 12.4178C134.782 12.7885 135.684 13.2004 136.34 13.6535C138.226 14.9303 139.538 16.3101 140.276 17.7929C141.055 19.2757 141.608 20.6967 141.936 22.0559C142.141 22.9209 142.285 23.6417 142.367 24.2183C142.449 24.795 142.49 25.4334 142.49 26.1336C142.49 26.7514 142.428 27.3486 142.305 27.9253C142.182 28.5019 141.916 28.955 141.506 29.2845C141.178 29.5316 140.891 29.6964 140.645 29.7788C140.399 29.82 140.173 29.8405 139.968 29.8405C139.353 29.8817 138.738 29.8817 138.124 29.8405C137.55 29.7994 136.955 29.7994 136.34 29.8405C136.135 29.8405 135.93 29.8611 135.725 29.9023C135.561 29.9023 135.377 29.9023 135.172 29.9023C134.762 29.9023 134.352 29.9023 133.942 29.9023C133.532 29.8611 133.122 29.8405 132.712 29.8405C132.179 29.8405 131.646 29.8611 131.113 29.9023C130.621 29.9023 130.109 29.9023 129.576 29.9023C129.207 29.9023 128.838 29.9023 128.469 29.9023C128.141 29.8611 127.793 29.8405 127.424 29.8405H126.686C126.358 29.8405 126.05 29.8817 125.763 29.9641C125.476 30.0465 125.23 30.1907 125.025 30.3966C124.862 30.5613 124.78 30.7879 124.78 31.0762C124.78 31.5293 125.046 31.9412 125.579 32.3119C126.112 32.6826 126.727 33.0121 127.424 33.3004C128.244 33.6299 129.207 33.8358 130.314 33.9182C131.462 33.9594 132.364 33.9594 133.02 33.9182C133.266 33.9182 133.512 33.8976 133.758 33.8564C134.003 33.8152 134.249 33.7946 134.495 33.7946C134.7 33.7946 134.864 33.7946 134.987 33.7946C135.151 33.7946 135.336 33.774 135.541 33.7329C135.746 33.6917 136.053 33.6299 136.463 33.5475C136.873 33.4239 137.57 33.1768 138.554 32.8061C138.841 32.7237 139.128 32.6414 139.415 32.559C139.702 32.4354 140.03 32.3736 140.399 32.3736C141.219 32.3736 141.711 32.6414 141.875 33.1768C142.08 33.6711 142.182 34.1859 142.182 34.7214V36.1424ZM131.667 23.3534C131.995 23.3122 132.241 23.2916 132.405 23.2916C132.569 23.2916 132.712 23.2504 132.835 23.168C133.081 23.0444 133.225 22.9003 133.266 22.7355C133.348 22.5296 133.389 22.3854 133.389 22.3031C133.389 22.1795 133.327 21.9324 133.204 21.5617C133.081 21.1498 132.733 20.6761 132.159 20.1407C131.585 19.6464 131.011 19.3375 130.437 19.2139C129.863 19.0903 129.371 19.0286 128.961 19.0286C127.977 19.0286 127.239 19.1933 126.747 19.5228C126.296 19.8111 125.845 20.1613 125.394 20.5731C125.23 20.7379 125.046 20.9438 124.841 21.191C124.677 21.4381 124.595 21.7676 124.595 22.1795C124.595 22.6326 124.78 22.9621 125.148 23.168C125.558 23.3328 126.05 23.4563 126.624 23.5387C127.239 23.5799 127.895 23.5799 128.592 23.5387C129.289 23.4975 129.924 23.4563 130.498 23.4151L131.667 23.3534Z" fill="#D75A47"/>
<path d="M149.099 4.1511C149.099 3.36852 149.14 2.79188 149.222 2.42119C149.304 2.05049 149.447 1.76217 149.652 1.55623C149.898 1.3091 150.165 1.16494 150.452 1.12375C150.739 1.04137 151.046 1.00018 151.374 1.00018C151.866 1.00018 152.338 1.02078 152.788 1.06197C153.28 1.10315 153.772 1.12375 154.264 1.12375C154.633 1.12375 154.982 1.10315 155.31 1.06197C155.679 1.02078 156.048 1.00018 156.417 1.00018C157.155 1.00018 157.646 1.14434 157.892 1.43266C158.097 1.6386 158.2 1.96811 158.2 2.42119C158.241 2.83307 158.261 3.14199 158.261 3.34793V3.84219C158.261 4.41883 158.241 5.01606 158.2 5.63389C158.159 6.21053 158.118 6.78717 158.077 7.36381C158.036 7.61094 158.015 7.87866 158.015 8.16698C158.015 8.41411 158.015 8.66124 158.015 8.90837V9.8969V10.4529C158.015 10.5353 158.015 10.6383 158.015 10.7619C158.056 10.8854 158.077 10.9884 158.077 11.0708L158.2 15.4573C158.2 15.7457 158.2 15.9722 158.2 16.137C158.2 16.2605 158.179 16.3841 158.138 16.5077C158.138 16.6312 158.118 16.796 158.077 17.0019C158.077 17.2079 158.077 17.5168 158.077 17.9287V18.7318C158.077 19.432 158.077 19.9675 158.077 20.3382C158.077 20.6677 158.077 20.956 158.077 21.2031C158.118 21.4503 158.138 21.7386 158.138 22.0681C158.138 22.3976 158.138 22.8713 158.138 23.4891C158.138 24.56 158.118 25.4867 158.077 26.2693C158.077 27.0519 158.056 27.8345 158.015 28.6171C158.015 29.3997 158.015 30.2646 158.015 31.212C158.015 32.1181 158.015 33.2508 158.015 34.61L158.077 39.6762C158.077 40.0057 158.036 40.3764 157.954 40.7883C157.872 41.2002 157.646 41.5503 157.277 41.8386C156.827 42.1681 156.253 42.3534 155.556 42.3946C154.9 42.477 154.346 42.5182 153.895 42.5182C153.485 42.5182 153.219 42.4976 153.096 42.4564C152.973 42.4564 152.788 42.4564 152.543 42.4564L151.128 42.5182C150.8 42.5182 150.452 42.477 150.083 42.3946C149.755 42.3123 149.488 42.1681 149.283 41.9622C149.037 41.6738 148.873 41.159 148.791 40.4176C148.709 39.6762 148.668 39.079 148.668 38.6259C148.627 38.0081 148.627 37.3902 148.668 36.7724C148.709 36.1546 148.73 35.5367 148.73 34.9189V32.6947C148.73 31.8298 148.73 31.1296 148.73 30.5941C148.771 30.0175 148.812 29.5438 148.853 29.1731C148.894 28.7612 148.914 28.4317 148.914 28.1846C148.955 27.9375 148.976 27.7109 148.976 27.505V26.1458C148.976 25.4044 148.976 24.8483 148.976 24.4776C148.976 24.0657 148.955 23.6745 148.914 23.3038C148.914 22.9331 148.914 22.48 148.914 21.9445C148.914 21.4091 148.914 20.6059 148.914 19.535V18.6701C148.955 17.7639 148.996 16.8578 149.037 15.9516C149.078 15.0455 149.099 14.1393 149.099 13.2332L149.037 7.42559L149.099 4.1511Z" fill="#D75A47"/>
<path d="M174.988 16.9369C175.152 17.3076 175.254 17.6989 175.295 18.1108C175.377 18.5226 175.48 18.9139 175.603 19.2846C175.685 19.4494 175.726 19.6141 175.726 19.7789C175.767 19.9025 175.828 20.0466 175.91 20.2114C176.033 20.5409 176.136 20.8086 176.218 21.0145C176.3 21.1793 176.361 21.3235 176.402 21.447C176.443 21.5706 176.464 21.6942 176.464 21.8177C176.505 21.9413 176.566 22.106 176.648 22.312C176.73 22.5591 176.792 22.7445 176.833 22.868C176.915 22.9916 176.997 23.1563 177.079 23.3623C177.448 24.1037 177.694 24.5568 177.817 24.7215C177.981 24.8863 178.104 24.9686 178.186 24.9686C178.391 24.9686 178.493 24.8451 178.493 24.5979C178.534 24.3508 178.575 24.0831 178.616 23.7948C178.739 23.0534 178.883 22.3532 179.047 21.6942L179.477 19.7789C179.559 19.367 179.62 19.0375 179.661 18.7904C179.702 18.5432 179.743 18.3167 179.784 18.1108C179.825 17.8636 179.866 17.5959 179.907 17.3076C179.989 17.0193 180.092 16.628 180.215 16.1337C180.297 15.8866 180.358 15.7012 180.399 15.5777C180.44 15.4541 180.522 15.2276 180.645 14.8981L181.076 13.8477C181.158 13.6418 181.199 13.5182 181.199 13.477C181.24 13.3947 181.26 13.3329 181.26 13.2917C181.301 13.2505 181.322 13.1887 181.322 13.1064C181.363 13.024 181.424 12.8592 181.506 12.6121C181.588 12.4885 181.65 12.365 181.691 12.2414C181.732 12.1178 181.834 11.9943 181.998 11.8707C182.121 11.7883 182.326 11.7059 182.613 11.6236C182.9 11.5412 183.392 11.5 184.089 11.5H186.61H188.455C188.783 11.5 189.029 11.5412 189.193 11.6236C189.398 11.6648 189.541 11.7265 189.623 11.8089C189.869 12.056 189.992 12.3856 189.992 12.7974C190.033 13.2917 189.91 13.8683 189.623 14.5274C189.377 15.1864 189.152 15.9072 188.947 16.6898C188.824 17.1428 188.721 17.5341 188.639 17.8636C188.557 18.1931 188.455 18.5432 188.332 18.9139C188.127 19.4082 187.922 19.9025 187.717 20.3967C187.553 20.8498 187.328 21.4882 187.041 22.312C186.836 22.8886 186.651 23.5064 186.487 24.1655C186.323 24.8245 186.159 25.3805 185.995 25.8336C185.749 26.6574 185.462 27.44 185.134 28.1813C184.847 28.9227 184.581 29.7053 184.335 30.5291C184.253 30.8586 184.15 31.1675 184.027 31.4558C183.945 31.7441 183.843 32.0531 183.72 32.3826L182.736 34.7303C182.654 34.9363 182.49 35.3481 182.244 35.966C181.998 36.5838 181.814 37.0369 181.691 37.3252C181.445 38.0254 181.117 38.7668 180.707 39.5494C180.338 40.2908 179.743 41.0116 178.924 41.7118C177.817 42.6591 176.648 43.3181 175.418 43.6888C174.23 44.1007 172.856 44.3066 171.298 44.3066C171.093 44.3066 170.868 44.286 170.622 44.2449C170.417 44.2449 170.089 44.2243 169.638 44.1831C169.105 44.1419 168.593 44.0801 168.101 43.9977C167.65 43.9565 167.363 43.8948 167.24 43.8124C166.953 43.73 166.686 43.4417 166.44 42.9474C166.235 42.4532 166.133 41.7941 166.133 40.9704V37.6341C166.133 36.9751 166.235 36.5014 166.44 36.2131C166.686 35.9248 166.912 35.7188 167.117 35.5953C167.199 35.5129 167.342 35.4511 167.547 35.4099C167.752 35.3275 167.896 35.2864 167.978 35.2864C168.183 35.2864 168.429 35.307 168.716 35.3481C169.003 35.3893 169.331 35.4099 169.7 35.4099H170.868C171.073 35.4099 171.237 35.4305 171.36 35.4717C171.524 35.4717 171.708 35.4717 171.913 35.4717C172.036 35.4717 172.18 35.4511 172.344 35.4099C172.549 35.3687 172.713 35.2658 172.836 35.101C172.959 34.9363 173.02 34.6891 173.02 34.3596C173.02 34.1949 172.979 33.9889 172.897 33.7418C172.815 33.4947 172.651 33.124 172.405 32.6297C172.323 32.5061 172.262 32.3826 172.221 32.259C172.18 32.0942 172.118 31.9501 172.036 31.8265C171.954 31.703 171.893 31.5794 171.852 31.4558C171.852 31.2911 171.811 31.1469 171.729 31.0233L171.052 29.6023C170.724 28.9845 170.458 28.4697 170.253 28.0578C170.089 27.6459 169.864 27.0898 169.577 26.3896C169.249 25.6894 168.941 24.948 168.654 24.1655C168.408 23.3829 168.121 22.6827 167.793 22.0648L166.071 18.4197C165.989 18.2137 165.907 18.0078 165.825 17.8018C165.784 17.5959 165.723 17.39 165.641 17.184L165.457 16.8133L164.903 15.207C164.821 14.9598 164.719 14.6715 164.596 14.342C164.473 13.9713 164.411 13.7036 164.411 13.5388C164.411 13.3329 164.432 13.1269 164.473 12.921C164.473 12.6739 164.534 12.4473 164.657 12.2414C164.862 11.9531 165.067 11.8089 165.272 11.8089C165.477 11.7677 165.702 11.7471 165.948 11.7471H169.454L171.79 11.6236C171.954 11.6236 172.139 11.6442 172.344 11.6853C172.549 11.7265 172.733 11.7883 172.897 11.8707C173.02 11.9531 173.123 12.0972 173.205 12.3032C173.287 12.4679 173.369 12.6121 173.451 12.7357C173.533 12.9828 173.594 13.1475 173.635 13.2299C173.676 13.3947 173.717 13.58 173.758 13.786C173.799 13.9507 173.922 14.2802 174.127 14.7745L174.988 16.9369Z" fill="#D75A47"/>
<path d="M0.18448 2.66836C0.18448 2.05053 0.266471 1.59746 0.430452 1.30914C0.594434 0.979629 0.758416 0.773686 0.922398 0.691308C1.37335 0.485366 1.76281 0.40299 2.09077 0.44418C2.41873 0.44418 2.76719 0.44418 3.13615 0.44418H5.16543C5.69837 0.44418 6.3133 0.40299 7.01022 0.320612C7.70715 0.238236 8.26059 0.402992 8.67054 0.814876C8.75253 0.93844 8.85502 1.14438 8.97801 1.4327C9.14199 1.67983 9.22398 1.96815 9.22398 2.29766L9.16249 4.89254C9.16249 5.34561 9.18298 5.77809 9.22398 6.18997C9.26497 6.60186 9.28547 7.03434 9.28547 7.48741C9.28547 7.94049 9.24448 8.39356 9.16249 8.84663C9.12149 9.2997 9.10099 9.75278 9.10099 10.2059V11.009C9.14199 11.8328 9.16249 12.4918 9.16249 12.9861C9.20348 13.4391 9.32647 13.7687 9.53144 13.9746C9.61343 14.057 9.71592 14.0982 9.83891 14.0982C10.0029 14.0982 10.1669 14.057 10.3309 13.9746C10.5358 13.8922 10.8023 13.7481 11.1303 13.5421C11.4172 13.4186 11.9502 13.2126 12.7291 12.9243C13.508 12.636 14.5534 12.4918 15.8652 12.4918C16.1112 12.4918 16.4802 12.5124 16.9721 12.5536C17.5051 12.5948 18.079 12.7184 18.6939 12.9243C19.3499 13.089 20.0058 13.3568 20.6617 13.7275C21.3586 14.0982 21.9941 14.613 22.568 15.272C22.896 15.6839 23.2239 16.1576 23.5519 16.693C23.8799 17.2285 24.1463 17.7639 24.3513 18.2994C24.6793 19.1232 24.8637 20.0087 24.9047 20.956C24.9457 21.8622 24.9867 22.9331 25.0277 24.1688V26.084C25.0277 26.5783 25.0482 27.0725 25.0892 27.5668C25.1302 28.0199 25.1302 28.4935 25.0892 28.9878L24.9662 32.7566C24.9662 33.1272 24.9457 33.4979 24.9047 33.8686C24.9047 34.1981 24.9047 34.5483 24.9047 34.9189C24.9047 35.3308 24.9252 35.7427 24.9662 36.1546C25.0072 36.5665 25.0277 36.9784 25.0277 37.3903L25.0892 39.4909C25.0892 39.9439 25.0687 40.3352 25.0277 40.6647C24.9867 40.9531 24.8023 41.2414 24.4743 41.5297C24.1053 41.8592 23.6339 42.024 23.0599 42.024L20.9077 41.9004C20.5797 41.9416 20.3133 41.9622 20.1083 41.9622C19.9443 41.9622 19.7803 41.9622 19.6163 41.9622H18.3865C17.8125 41.9622 17.3411 41.9004 16.9721 41.7768C16.6442 41.6533 16.3982 41.4885 16.2342 41.2826C16.0702 41.0766 15.9677 40.8707 15.9267 40.6647C15.8857 40.4176 15.8652 40.1911 15.8652 39.9851C15.8652 39.6556 15.8652 39.3261 15.8652 38.9966C15.9062 38.6259 15.9472 38.0905 15.9882 37.3903L16.0497 34.5483C16.0497 34.3011 16.0497 34.1158 16.0497 33.9922C16.0497 33.8686 16.0497 33.7451 16.0497 33.6215C16.0497 33.4979 16.0497 33.3332 16.0497 33.1272C16.0497 32.9213 16.0702 32.5918 16.1112 32.1387C16.1522 31.6033 16.1727 31.1914 16.1727 30.9031C16.2137 30.5736 16.2342 30.3264 16.2342 30.1617C16.2752 29.9969 16.2957 29.894 16.2957 29.8528C16.2957 29.7704 16.2957 29.7086 16.2957 29.6674C16.2957 29.3791 16.2547 28.9672 16.1727 28.4318C16.1317 27.8551 16.0702 27.2785 15.9882 26.7018C15.9472 26.084 15.8652 25.528 15.7423 25.0337C15.6603 24.5394 15.5988 24.2099 15.5578 24.0452C15.4348 23.7157 15.1683 23.345 14.7584 22.9331C14.3894 22.5212 13.877 22.3153 13.221 22.3153C12.2781 22.3153 11.4787 22.6654 10.8228 23.3656C10.1669 24.0246 9.71592 24.8072 9.46995 25.7133C9.34696 26.2076 9.24448 26.8666 9.16249 27.6904C9.12149 28.5141 9.08049 29.3585 9.0395 30.2235C8.9985 31.0884 8.97801 31.9122 8.97801 32.6948C9.019 33.4362 9.0395 33.9716 9.0395 34.3011L9.10099 35.5368C9.18298 36.5665 9.24448 37.3079 9.28547 37.761C9.32647 38.1728 9.34697 38.6465 9.34697 39.182V39.7998C9.30597 40.7883 9.08049 41.3855 8.67054 41.5915C8.26059 41.7974 7.89163 41.9004 7.56366 41.9004H5.47289C5.02194 41.9004 4.71448 41.9004 4.5505 41.9004C4.42751 41.9416 4.30452 41.9622 4.18154 41.9622C4.09955 42.0034 3.93556 42.024 3.68959 42.024C3.48461 42.0652 3.07466 42.0857 2.45973 42.0857C1.96778 42.0857 1.57833 42.0034 1.29136 41.8386C1.00439 41.6739 0.758416 41.4885 0.553439 41.2826C0.307466 40.9531 0.143484 40.603 0.0614933 40.2323C0.0204978 39.8616 0 39.5115 0 39.182C0 38.6877 0 38.3994 0 38.317C0.0409955 38.1934 0.0614933 38.0905 0.0614933 38.0081C0.102489 37.8845 0.122986 37.6992 0.122986 37.452C0.163982 37.2049 0.18448 36.6695 0.18448 35.8457V34.054C0.18448 33.848 0.18448 33.6833 0.18448 33.5597C0.18448 33.4362 0.18448 33.2714 0.18448 33.0655C0.18448 32.8183 0.163982 32.53 0.122986 32.2005C0.122986 31.8298 0.122986 31.315 0.122986 30.6559C0.0819911 29.585 0.0409955 28.7613 0 28.1846C0 27.5668 0 27.0314 0 26.5783L0.122986 17.002C0.122986 16.3429 0.122986 15.8075 0.122986 15.3956C0.163982 14.9837 0.18448 14.6336 0.18448 14.3453C0.225475 14.0158 0.245973 13.7069 0.245973 13.4186C0.245973 13.089 0.245973 12.6978 0.245973 12.2447V11.5651C0.245973 11.1944 0.225475 10.8443 0.18448 10.5148C0.18448 10.1441 0.18448 9.77337 0.18448 9.40268V2.66836Z" fill="#D75A47"/>
<path fill-rule="evenodd" clip-rule="evenodd" d="M69.8418 0.299988C69.2895 0.299988 68.8418 0.747703 68.8418 1.29999V41.0033C68.8418 41.5556 69.2895 42.0033 69.8418 42.0033H77.0658C77.6181 42.0033 78.0658 41.5556 78.0658 41.0033V40.3833C79.8027 34.952 82.373 27.2525 85.2446 21.0736C86.7615 17.8097 88.2527 15.2152 89.6096 13.6139C90.3708 12.7156 90.8271 12.4151 91.0255 12.3206C91.712 12.6298 92.5673 13.4377 93.3308 15.2223C93.4728 15.5544 93.6053 15.9068 93.7278 16.2776C91.0693 17.1169 88.6203 18.8423 86.8355 21.2901C85.3271 23.3588 84.5085 26.08 84.1191 28.5988C83.7211 31.174 83.7103 33.9356 84.1121 36.337C84.3132 37.5388 84.6337 38.7488 85.1245 39.8372C85.5999 40.8918 86.3473 42.0806 87.5414 42.9193C88.8658 43.8495 90.4876 44.1629 92.1321 43.7321C93.6195 43.3425 94.8799 42.4137 95.9289 41.3539C98.1473 39.1128 99.5919 35.9486 100.47 32.7367C101.048 30.622 101.417 28.3551 101.576 26.0761C101.66 26.4084 101.745 26.8111 101.825 27.2898C102.028 28.5053 102.163 29.9837 102.216 31.5943C102.323 34.839 102.091 38.3418 101.576 40.9398L101.347 42.0961C101.101 43.3406 101.909 44.5496 103.153 44.7982L105.427 45.2527C106.674 45.502 107.887 44.6917 108.134 43.444L108.361 42.2958C109.002 39.0589 109.25 35.007 109.13 31.3646C109.07 29.5317 108.914 27.7333 108.647 26.1375C108.392 24.6096 107.992 23.0007 107.314 21.7155C105.813 18.8728 103.489 17.0618 100.89 16.2306C100.586 14.9149 100.188 13.6509 99.6866 12.4777C98.452 9.59181 96.3646 6.77721 93.0354 5.65612C89.1842 4.35931 86.0962 7.03812 84.3421 9.10813C82.3718 11.4333 80.5674 14.7093 78.9763 18.133C78.6687 18.7947 78.365 19.4712 78.0658 20.1583V1.29999C78.0658 0.747703 77.6181 0.299988 77.0658 0.299988H69.8418ZM91.1427 12.2811C91.1425 12.2831 91.1279 12.2879 91.0998 12.2899C91.1288 12.2802 91.1429 12.2792 91.1427 12.2811ZM92.4162 25.3977C93.0797 24.4878 93.8922 23.8082 94.7493 23.3523C94.7598 25.9489 94.431 28.5837 93.7989 30.8959C93.1239 33.3652 92.1781 35.1972 91.1808 36.2875C91.0903 35.9774 91.0054 35.6097 90.9344 35.1848C90.6674 33.589 90.6592 31.5804 90.9552 29.6656C91.2599 27.6944 91.827 26.2057 92.4162 25.3977Z" fill="#D75A47"/>
</svg>
